<svg xmlns="http://www.w3.org/2000/svg" viewBox="0 0 180 50" fill="none">
  <!-- j letter -->
  <path d="M8 8h8v28c0 6-3 10-10 10-2 0-4-.5-6-1.5l2-6c1 .5 2 1 3 1 2 0 3-1.5 3-4V8z" fill="#8B5CF6"/>
  <!-- j dot (red accent) -->
  <rect x="8" y="0" width="8" height="7" rx="1" fill="#EF4444"/>
  <!-- b letter -->
  <path d="M24 0h8v16c2-2 5-3 8-3 8 0 13 6 13 15s-5 15-13 15c-3 0-6-1-8-3v2h-8V0zm8 28c0 5 3 8 7 8s7-3 7-8-3-8-7-8-7 3-7 8z" fill="#8B5CF6"/>
  <!-- CLOUD DOCS text -->
  <text x="58" y="35" font-family="system-ui, -apple-system, sans-serif" font-size="14" font-weight="600" fill="#9CA3AF" letter-spacing="1">CLOUD DOCS</text>
</svg>
